# xmcd
#
# Track frame offsets:
# 150
# 13067
# 26885
# 38817
# 48337
# 60312
# 69507
# 84890
# 100675
# 113820
#
# Disc length: 1662 seconds
#
#
# Revision: 2
# Processed by: cddbd v1.5.1PL0 Copyright (c) Steve Scherf et al.
# Submitted via: FreeRIP 2.93 
#
DISCID=74067c0a
DTITLE=Patsy Cline and Jim Reeves - Remembering
DYEAR=2001
DGENRE=Country
TTITLE0=I fall to Pieces
TTITLE1=So Wrong
TTITLE2=Misty Moonlight
TTITLE3=Back in baby's arms
TTITLE4=Missing you
TTITLE5=Walking after midnight
TTITLE6=The blizzard
TTITLE7=Why can't he be you
TTITLE8=Distant drums
TTITLE9=Leaving on your mind
EXTD=YEAR: 2001  ID3G:   2
EXTT0=
EXTT1=
EXTT2=
EXTT3=
EXTT4=
EXTT5=
EXTT6=
EXTT7=
EXTT8=
EXTT9=
PLAYORDER=
